<?xml version="1.0" encoding="UTF-8"?>
<!DOCTYPE svg PUBLIC "-//W3C//DTD SVG 1.1//EN" "http://www.w3.org/Graphics/SVG/1.1/DTD/svg11.dtd">
<!-- Creator: CorelDRAW -->
<svg xmlns="http://www.w3.org/2000/svg" xml:space="preserve" width="162.56mm" height="46.5666mm" version="1.1" style="shape-rendering:geometricPrecision; text-rendering:geometricPrecision; image-rendering:optimizeQuality; fill-rule:evenodd; clip-rule:evenodd"
viewBox="0 0 16256 4656.66"
 xmlns:xlink="http://www.w3.org/1999/xlink"
 xmlns:xodm="http://www.corel.com/coreldraw/odm/2003">
 <defs>
  <style type="text/css">
   <![CDATA[
    .fil15 {fill:#0B024B}
    .fil17 {fill:#0D0A51}
    .fil14 {fill:#120948}
    .fil23 {fill:#140A53}
    .fil26 {fill:#1C125C}
    .fil4 {fill:#2A1E74}
    .fil6 {fill:#2C216D}
    .fil5 {fill:#2E2276}
    .fil0 {fill:#2E2279}
    .fil7 {fill:#2E247A}
    .fil11 {fill:#302477}
    .fil33 {fill:#9790C5}
    .fil29 {fill:#A51824}
    .fil3 {fill:#A92A35}
    .fil24 {fill:#B3121C}
    .fil13 {fill:#BA2835}
    .fil18 {fill:#C3BDE9}
    .fil10 {fill:#CB1B2B}
    .fil27 {fill:#CB636A}
    .fil30 {fill:#CF8A8C}
    .fil9 {fill:#D42332}
    .fil31 {fill:#D46F76}
    .fil32 {fill:#DDA9AA}
    .fil20 {fill:#E4868A}
    .fil1 {fill:#E71E2B}
    .fil2 {fill:#E81D2A}
    .fil25 {fill:#EB9497}
    .fil22 {fill:#EB9DA3}
    .fil12 {fill:#F7F9FA}
    .fil19 {fill:#F8868D}
    .fil28 {fill:#FC9BA4}
    .fil16 {fill:#FCFAF6}
    .fil21 {fill:#FFF5F2}
    .fil8 {fill:#FFFDFB}
   ]]>
  </style>
 </defs>
 <g id="Camada_x0020_1">
  <metadata id="CorelCorpID_0Corel-Layer"/>
  <g id="_1861338997360">
   <path class="fil0" d="M2530.13 2955.89c-16.01,-194.66 112.91,-446.2 139.36,-132.68 6.19,73.23 5.36,188.09 -36.52,244.61 -57.8,78.04 -96.89,-39.65 -102.84,-111.93zm-865.43 -241.16c-151.26,7.34 -780.95,-5.76 -870.03,-87.63 76.21,-3.86 137,17.65 210.04,28.79 170.56,26.04 595.72,31.35 659.99,58.84zm-46.51 -188.75c-20.35,19.69 1.97,9.7 -33.06,15.22l-470.78 -26.18 -2.07 -43.28 404.65 23.97c99.85,7.19 87.73,5.09 101.26,30.27zm-759.3 -181.61c68.27,3.68 153.52,1.12 191.55,45.32 9.81,40.27 10.71,83.59 -0.94,118.6 -46.51,28.51 -142.34,11.56 -191.28,-3.56l0.04 -44.89 0.63 -115.47zm825.63 203.47c-15.53,-25.95 -20.26,-103.41 -5.55,-137.99 15.55,-36.51 58.41,-35.25 104.08,-34.49 95.74,1.57 207.05,-23.76 237.91,48.53l-114.04 34.96 151.5 10.66 -21.22 92.76c-85.24,2.89 -287.13,16.3 -352.68,-14.43zm-462.74 -117.66c-139.27,-6.46 -104.6,4.47 -109.43,-36.48 26.61,-25.11 72.41,-11.82 131.68,-7.3l263.84 15.69c135.56,8.32 102.54,-1.07 110.58,35.71 -2.35,1.31 -5.71,2.66 -7.45,3.11l-389.22 -10.73zm996.08 180.18c-8.1,-73.01 3,-153.83 7.34,-227.54 3.23,-54.7 -11.54,-169.08 32.52,-197.47l-4.22 148.7 384.34 -29.68c-66.18,35.87 -301.6,71.09 -354.05,91.04 -58.34,22.17 -40.44,24.2 -65.93,214.95zm21.19 -524.55c-4.93,-124.58 1.24,-241.21 0.91,-364.56 -0.28,-112.75 -15.29,-242.4 89.01,-269.09 292.82,-74.91 287.25,236.1 255.71,452.04 -99.97,9.03 -145.61,12.54 -191.54,74.63 -59.33,80.19 -38.6,117.61 -154.09,106.98zm-125.47 -155.03c-28.29,27.12 -84.77,15.61 -134.63,16.19l-52 140.18 -980.43 -33.9c0.13,-124.79 46.75,-318.69 85.96,-433.86 66.03,-193.83 85.61,-204.76 319.86,-191.74l-1.49 472.1 -205.88 135.5 756.68 13.42c24.49,-72.95 11.31,-99.71 91.46,-117.05l69.99 -40.7 5.54 -115.85 -123.25 -41.84c-69.36,136.77 -34.65,152.94 -203.96,151.86l-67.94 -108.47c-144.23,-22.49 -144.93,-7.31 -226.59,46.24l-32.85 -396.45c747.2,-16.22 718.18,-100.45 699.53,504.37zm608.45 955.82c56.01,-17.72 190.62,-48.07 197.31,-117.67 11.29,-117.23 -62.53,-741.33 -80.23,-867.6 -86.37,-616.42 -87.32,-562.66 -702.64,-559.94 -330.24,1.46 -951.6,-100.45 -1114.69,147.85 -147.73,224.97 -174.08,768.61 -198.43,1068.78 -81.69,49.41 -94.43,58.28 -83.27,188.97 7.03,82.3 25.41,141.81 81.04,180.03 185.31,127.34 1169.58,123.55 1403.53,73.01 45.95,67.79 22.4,114.15 98.27,156.23 62.62,34.74 130.64,49.61 209.32,41.14 154.87,-16.66 189.22,-147.18 189.79,-310.8z"/>
   <path class="fil0" d="M3968.54 1717.75l-10.35 -12.51c38.38,-5.06 -23.79,-3.31 16.91,-0.55 25.31,1.71 18.75,8.61 19.09,8.8l128.03 11.64 -41.27 -145.85c-63.7,-43.51 -167.27,-18.57 -268.2,-123.32 -53.85,-55.88 -158.85,-144.84 -113.92,-243.24l326.42 -13.75 -98.55 -44.78 653.83 43.8c-55.32,-33.3 -1238.13,-453.54 -1315,-462.81 -173.97,-20.97 -631.88,35.31 -831.65,50.49 -260.17,19.79 -580.98,20.07 -830.89,60.41l47.3 385.03 1152.62 0.62c113.61,204.9 112.73,1274.1 182.35,1383.89 83.27,-41.51 72.87,-219.21 84.48,-326.02 13.56,-124.6 28.31,-249.46 43.61,-374.03 29.42,-239.81 73.34,-513.04 87.55,-744.44l-34.93 521.61 432.6 101.97 -437.18 -16.3 -33.92 405.04 422.48 -7.11 -429.38 98.62 -30.62 403.83c169.53,-45.59 363.43,-126.25 531.63,-187.64 87.09,-31.79 100.17,-144.74 130.24,-235.89 30.12,-91.29 65.84,-176.16 92.84,-267.93l334.37 -55.32c-34.65,-182.19 -43.11,-163.76 -210.49,-214.26z"/>
   <path class="fil1" d="M4452.25 1522.87l-304.21 18.48 229.72 871.45 690.9 -2.6c103.44,-108.26 942.27,-1086.23 957.53,-1150.2l-721.11 3.17 -436.14 709.42 -98.38 -711.78 -1019.53 3.13c7.11,83.53 149.17,202.67 245.59,229.05 128.36,35.11 372.35,-5.09 455.63,29.88z"/>
   <path class="fil1" d="M9101.07 1517.31l-349.65 18.54c-45.11,197.94 -252.86,726.99 -248.96,874.53l695.47 0.91 143.55 -438.76 564.1 -10.51 79.9 -259.57 -544.16 -9.48c-1.5,-58.04 12.35,-120.29 53.51,-145.69l622.66 -10.15 -22.28 -274.5 -1713.57 0.95c3.12,100.49 142.1,198.72 247.73,226.4 150.07,39.32 315.66,2.78 471.7,27.33z"/>
   <path class="fil1" d="M7653.3 1749.46c8.18,134.15 -240.39,533.24 -366.69,410.81 -73.34,-71.07 18.12,-256.72 56.49,-314.72 66.4,-100.38 165.24,-107.5 310.2,-96.09zm-130.01 501.87l-31.32 160.77 569.14 -1.51c40.58,-85.31 258.99,-795.48 245.15,-861.32 -521.43,-19.42 -1273.25,-110.42 -1553.32,225.36 -256.53,307.56 -47.63,758.77 468.76,634.64 159.39,-38.31 194.95,-119.43 301.59,-157.94z"/>
   <path class="fil1" d="M11958.8 1900.43c14.87,-77.01 52.06,-122.02 108.45,-146.88 40.04,-17.65 171.36,-41.2 207.68,-6 75.79,73.42 -93.53,165.09 -316.13,152.88zm681.84 290.06l-48.25 -38.89c-175.57,41.07 -632.43,141.16 -654.87,-96.23 198.1,-8.52 414.15,-7.76 599.72,-51.72 193.82,-45.94 323.93,-184.23 138.53,-338.38 -227.79,-189.4 -792.3,-160.82 -1071.5,-23.37 -508.15,250.13 -362.76,813.45 607.71,787.03 217.84,-5.93 402.14,-25.91 428.66,-238.44z"/>
   <path class="fil1" d="M14682.8 1901.04c24.98,-153.78 154.81,-179.41 324.76,-153.07 -14.61,162.26 -168.23,161.26 -324.76,153.07zm680.95 282.11l4.08 -39.69 -32.75 10.25c-138.8,10.36 -670.97,146.86 -671.24,-90.71 62.44,-36.14 468.46,-33.03 589.76,-55.42 209.87,-38.75 318.76,-194.33 148.44,-335.28 -248.8,-205.88 -761.8,-162.5 -1067.5,-33.45 -468.33,197.7 -438.52,821.38 611.08,789.18 215.38,-6.61 408.69,-19.69 418.13,-244.88z"/>
   <path class="fil1" d="M12803.69 1725.42c17.2,16.69 -3.48,7.25 25.44,15.82l99.12 3.55c42.22,1.39 84.58,2.25 126.72,4.79 3.08,39.61 4.57,16.5 -9,35.45 -5.95,255.55 -316.16,486.6 151.37,616.2 139.9,38.78 311.35,39.84 461.82,17.25 152.91,-22.96 231.3,-97.95 265.39,-240.71 -115.93,11.33 -339.79,65.35 -355.87,-71.57 -9.74,-82.92 68.3,-303.07 109.16,-353.7l286.6 -2.06 131 -189.54 -362.2 -14.58 48.95 -190.05c-185.09,-48.28 -417.12,49.81 -566.91,99.97 -237.95,79.68 -307.55,61.74 -411.59,269.18z"/>
   <path class="fil2" d="M9980.8 2412.06l591.97 -1.94c21.82,-132.53 163.15,-401.41 229.38,-478.37 157.02,-182.47 244.9,-168.02 529.63,-128.97 -1.6,-312.56 -47.47,-272.37 -354.64,-272.62 -203.46,-0.17 -403.92,9.13 -606.47,15.1 -159.05,4.69 -130.47,-19.36 -251.63,365.93 -46.99,149.39 -116.5,344.13 -138.24,500.87z"/>
   <path class="fil1" d="M5803.84 2413.3l576.59 -4.51c40.05,-10.99 270.56,-810.24 257.96,-845.7 -131.09,-15.64 -280.14,-17.04 -412.32,-12.8 -203.19,6.52 -169.58,12.68 -229.66,195.79 -58.08,177.04 -166.99,484.1 -192.57,667.22z"/>
   <path class="fil3" d="M5068.66 2616.79c-125.26,0.33 -600.93,-17.68 -676.5,17.02l1800.88 6.39c2974.94,7.45 6022.43,16.56 9000.05,-8.83l-468.04 -12.88c-3220.81,-14.14 -6435.85,-6.5 -9656.39,-1.7z"/>
   <path class="fil1" d="M6287.7 1195.26c-377,67.84 -104.87,342.37 286.94,269.36 404.56,-75.4 119.56,-342.53 -286.94,-269.36z"/>
   <path class="fil4" d="M4190.12 2969.17c28.93,50.18 154.66,243.58 195.1,266.67 47.99,-16.04 174.65,-216.9 204.31,-266.88l-1.67 382.66 70.03 -1.25 1.46 -448.84c-114.37,-15.37 -113.32,35.3 -161.98,101.18 -40.06,54.24 -72.05,110.89 -113.72,156.27 -17.75,-51.18 -72.43,-115.86 -104.06,-163.21 -46.79,-70.09 -46.8,-102.66 -158.81,-96.39 3.41,93.08 -19.61,398.68 10.91,453.97l59.3 1.81 -0.87 -385.99z"/>
   <path class="fil5" d="M11467.77 2980.65c27.64,17.77 3.24,-0.44 23.63,19.25 2.64,2.55 9.93,10.59 12.29,13.28l150.34 180.27c138.27,156.52 90.81,156.93 221.2,161.59 -0.9,-41.92 13.56,-425.44 -16.25,-457.48l-44.08 -0.74c-19.97,33.8 -11.67,138.84 -11.68,191.35 -0.01,62.51 -1.12,124.91 2.25,187.31 -63.88,-70.85 -119.11,-140.87 -182.69,-215.25 -124.05,-145.14 -98.49,-171.21 -225.03,-159.97l-0.73 453.87 71.14 -6.18 -0.39 -367.3z"/>
   <path class="fil4" d="M13077.58 3154.31c-26.14,-269.42 386.28,-288.67 405.93,-51.21 23.07,278.77 -385.18,264.9 -405.93,51.21zm470.4 44.08c110.56,-345.63 -441.08,-403.5 -533.02,-154.97 -125.66,339.62 443.61,434.5 533.02,154.97z"/>
   <path class="fil4" d="M5525.05 3303.04l-2.94 -355.17c160.57,-1.16 331.33,-1.22 331.02,173.34 -0.31,174.31 -163.85,183.18 -328.08,181.83zm-72.7 51.56c210.57,-7.54 474.36,7.76 474.64,-233.83 0.28,-242.95 -267.64,-220.55 -474.95,-223.63l0.31 457.46z"/>
   <path class="fil5" d="M7010.86 3330c38.14,18.47 35,16.09 85.28,15.05l1.76 -334.06c0.42,-46.74 9.35,-69.76 -11.98,-100.5l-22.04 0.65c-4.45,7.32 -7.29,-7.11 -11.67,33.15 -1.25,11.4 0.15,32.05 0.34,44.53 0.91,61.07 9.69,244.24 -10.88,270.48 -15.26,21.17 4.24,30.07 -42.64,-27.36l-133.39 -166.02c-130.97,-168.33 -125.02,-167.19 -232.32,-169.04l-0.35 456.77 72.31 1.43 -1.24 -384.69c102.42,113.79 195.87,258.35 306.82,359.61z"/>
   <path class="fil4" d="M10360.84 2947.36c116.66,1.8 217.44,-20.69 207.21,112.44 -78.68,62.25 -61.45,50.22 -208.3,51.63l1.09 -164.07zm164.95 195.92c51.44,-25.36 89.06,-35.43 109.65,-78.77 23.52,-49.54 2.54,-98.65 -27.97,-124.99 -73.66,-63.64 -217.41,-39.89 -319.02,-42.94l-0.65 457.83 72.56 -0.68 -0.54 -193.81c270.38,5.72 154.98,218.81 349.27,189.93 -63.86,-79.02 -102.05,-143.79 -183.3,-206.57z"/>
   <path class="fil4" d="M13776.57 2947.47c82.02,0.45 217.65,-16.9 209.39,84.87 -7.75,95.38 -149.46,77.87 -210.19,79.33l0.8 -164.2zm165.41 195.81c56.35,-25.67 84.32,-26.52 109.07,-80.37 21.95,-47.74 3.51,-103.34 -23.52,-125.95 -63.91,-53.5 -226.32,-37.64 -323.2,-40.1l-0.65 457.91 72.7 -2.39 -0.67 -192.32c158.37,1.25 152.9,50.25 242.51,160.25 38.18,46.84 34.86,31.69 108.12,34.75 -56.82,-84.42 -112.92,-154.08 -184.36,-211.78z"/>
   <path class="fil4" d="M11016.4 2960.24l98.95 216.02 -199.05 0.26 100.1 -216.28zm-116.43 265.99l247.15 -0.03c46.03,162.32 82.14,126.25 134.65,127.45l-222.07 -456.61c-100.28,1.91 -77.84,-5.44 -117.92,79.16 -52.55,110.89 -144.22,275.08 -184.11,376.32l75.48 0.21 66.82 -126.5z"/>
   <path class="fil4" d="M7940.19 3177.31c23.87,-69.74 70.97,-142.83 99.02,-217.27 29.12,74.44 68.65,146.69 99.22,215.92l-198.24 1.35zm-29.89 49.05l256.55 1.03 55.84 124.95 80.91 2 -221.74 -457.16c-99.42,1.57 -77.51,-6.92 -117.62,77.38 -45.99,96.6 -158.98,305.47 -183.5,378.35l77.21 0.62 52.35 -127.17z"/>
   <path class="fil5" d="M6250.05 2961.75l100.9 215.37 -195.67 -3.02 94.77 -212.35zm-126.99 264.78l255.58 2.46 56.51 124.27 79.2 1.13c-34.39,-83.2 -83.88,-171.79 -124.21,-252.45 -104.48,-208.9 -70.4,-203.79 -168.51,-207.02l-228.08 458.74 79.26 0.12 50.25 -127.25z"/>
   <path class="fil4" d="M12608.94 2947.57c89.99,0.39 220.71,-13.28 214.84,95.11 -5.22,96.62 -128.39,89.34 -216.06,90.15l1.22 -185.26zm2.93 234.56c113.91,2.63 317.37,-10.28 283.35,-180 -25.76,-128.47 -228.24,-101.17 -359.1,-105.57l-0.57 458.09 72.18 -1.77 4.14 -170.75z"/>
   <path class="fil4" d="M7558.16 3447.59c7.94,5.71 13.91,17.8 32.17,15.31l-0.47 -59.54 -37.9 -21.47 36.53 -24.77c86.77,-12.71 100.57,4.71 108.79,-59.52l-56.21 0.99c-444.94,98.34 -407.97,-478.17 53.91,-332.98l2.97 -60.56c-181.26,-23.71 -352.86,-5.86 -417.44,125.31 -89.13,181.07 45.36,306.65 204.48,327.29l8.78 49.03c43.52,6.71 60.48,-3.31 64.39,40.91z"/>
   <path class="fil4" d="M8394.85 3330.67c175.18,114.98 524.68,-61.98 274.64,-195.8 -61.2,-32.73 -206.01,-62.17 -199.91,-132.51 8.35,-96.38 185.53,-53.92 257.65,-37.2l-4.62 -58.49c-110.75,-35.19 -365.17,-18.21 -323.71,133.48 33.89,123.96 289.67,85.55 274.17,224.38 -57.93,85.74 -198.97,37.49 -281.41,9.56l3.19 56.58z"/>
   <path class="fil4" d="M12033.62 3330.67c154.67,107.49 527.36,-51.8 281.04,-192.18 -59.12,-33.68 -213.92,-63.04 -206.59,-137.98 9.35,-95.45 189.88,-50.67 257.29,-35.27l-5.6 -58.38c-107.41,-43.07 -362.74,-12.32 -322.9,132.99 34.55,126.05 290.26,84.85 274.22,224.68 -57.71,85.16 -197.77,38.49 -280.75,9.62l3.29 56.52z"/>
   <path class="fil6" d="M15122.29 3330.67c75.2,51.7 366.16,57.58 355.13,-98.19 -10.46,-147.97 -291.84,-114.11 -279.49,-231.57 9.69,-92.1 190.01,-54.58 256.42,-34.85l-5.41 -61.52c-291.89,-74.11 -447.76,129.65 -221.84,222.45 60.45,24.84 218.13,64.1 169.24,146.57 -46.49,78.44 -210.72,20.15 -277.06,0.16l3.01 56.95z"/>
   <path class="fil0" d="M4900.56 3216.22c-20.36,31.07 -8.42,-24.15 -8.16,-50.09 0.5,-49.36 10.92,-218.73 -11.13,-251.71l-33.96 0.41c-0.69,62.93 15.38,237.36 -10.32,285.58 13.85,116.03 73.09,156.57 199.21,160.25 54.96,1.6 111.07,-6.49 155.48,-27.45 50.38,-23.77 54.35,-42 75.44,-102.65 -18.61,-18.87 -8.11,18.99 -12.81,-31.72 -5.41,-58.45 19.77,-246.52 -9.27,-286.31 -22.53,9.74 -13.62,-5.15 -21.75,21.5 -3.98,13.04 5.47,208.53 -7.09,280.85 12.76,-57.06 11.61,-252.01 1.8,-314.61 -19.08,24.85 -7.32,-20.94 -13.95,44.27 -8.03,79.05 24.24,260.96 -31.02,324.97 -34.52,39.97 -174.45,90.93 -256.45,-30.14l-16.02 -23.15z"/>
   <path class="fil5" d="M965.04 3010.19c20.38,85.36 97.36,134.13 193.57,152.32 109.05,20.61 199.92,1.67 203.74,-115.93 -107.18,-36.33 -278.1,-32.25 -397.31,-36.39z"/>
   <path class="fil5" d="M2320.87 1816.15l-50.09 6.11 0.05 205.8c66.85,1.66 97.88,-45.75 139.56,-131.72 105.33,-6.11 101.28,10.83 131.26,-20.68l-30.51 -0.48c34.62,-7.21 15.69,-5.15 25.41,-10.6 -13.06,-74.55 -6.82,-1.84 -52.59,-47.62 -1.51,-6.3 -5.49,-23.8 -7.34,-28.78 -6.94,-18.57 -5.66,-12.36 -13.27,-22.3l-2.96 19.1c-11.36,-61.59 4.75,-28.06 -26.32,-40.32l-101.13 -4.84c0.5,38.4 6.32,52.21 -12.07,76.33z"/>
   <path class="fil5" d="M9202.35 3306.99l-0.67 -162.8c47.23,-25.96 126.87,-2.98 177.05,-12.74 35.64,-6.94 18.05,-6.54 24.67,-10.21 -58.66,-26.31 -147.35,9.13 -202.11,-21.81l0.37 -154.32c31.46,-18.19 56.61,-11.54 99.92,-11.26 43.59,0.27 83.14,6.09 113.74,-11.03 -46.78,-28.36 -166.24,1.74 -273.27,-18.76l4.61 445.24 243.53 -1.22c51.88,-8.87 14.4,0.03 37.2,-17.41 -2.7,-1.51 -6.48,-7.09 -8.12,-4.46 -1.65,2.67 -6.15,-3.3 -8.54,-3.82l-185.6 -5.35c-17.95,-3.74 -14.63,-5.09 -22.78,-10.05z"/>
   <path class="fil7" d="M14759.91 3306.42l0.9 -163.69c34.13,-19.94 103.47,-9.14 152.58,-11.48l41.84 -10.01c-50.02,-33.2 -155.63,10.64 -193.12,-22.79l-1.32 -151.39c37.58,-39.06 168.22,2.75 216.55,-24.24 -44.86,-21.85 -214.67,-9.17 -277.98,-9.02l5.65 428.76 230.15 3.83c60.06,-0.93 39.04,-2.69 54.54,-15.72 -13.1,-9.45 -1.4,-12.08 -54.46,-12.59 -39.19,-0.36 -161.55,11.64 -175.33,-11.66z"/>
   <path class="fil5" d="M9925.1 2947.27l0.01 407.31 71.57 -0.77 0.05 -408c23.5,-19.14 38.37,-13.54 76.48,-12.74 81.58,1.73 57.39,2.89 76.69,-10.25 -25.5,-16.55 -1.74,-10.3 -87.63,-9.19 -33,0.43 -66.27,0.01 -99.28,-0.26 -66.3,-0.56 -151.24,-9.82 -190.9,9.45 30.6,16.77 37.54,11.66 80.91,10.78 26.21,-0.53 60.84,-7.81 72.1,13.67z"/>
   <path class="fil8" d="M12486.15 3625.46c-112.84,61.4 -44.62,241.65 96.07,185.91 105.27,-41.71 43.59,-261.9 -96.07,-185.91z"/>
   <path class="fil9" d="M12751.88 3844.88c28.78,-40.68 11.11,-148.59 12.18,-204.6 26.11,34.93 63.01,117.64 98.05,137.79 39.37,-34.06 66.42,-93.02 97.66,-137.21 0.61,55.75 -16.84,164.56 12.57,204.13 33.49,-10.77 22.85,3.75 25.74,-49.91l-7.56 -206.71c-55.35,2.15 -53.97,22.39 -75.84,60.12 -18.08,31.17 -31.69,54.32 -52.57,78.03 -24.38,-29.28 -37.45,-53.68 -55.79,-85.99 -20.72,-36.46 -23.61,-51.05 -72.11,-51.7 -11.7,43.87 -6.56,92.59 -6.78,138.72 -0.66,140.36 -3.77,108.47 24.45,117.33z"/>
   <path class="fil8" d="M10677.37 3816.77c88.99,-0.04 162.1,-11.49 163.71,-100.38 1.75,-96.5 -73.25,-98.95 -163.42,-99.14l-0.29 199.52z"/>
   <path class="fil10" d="M10229.72 3655.38c8.19,-24.27 -10.52,-8.49 17.22,-26.96 -0.09,36.62 -0.76,73.39 -1.43,110.12 -0.26,13.73 -2.46,44.23 -1.66,55.8 5.28,77.1 -2.44,22.54 16.77,47.73 20.36,-36.73 10.44,-183.69 13.17,-250.42l-44.86 8.15 -85.49 124.08c-0.93,-1.9 -4.19,4.24 -6.26,6.4 -11.6,-36.3 -31.89,-58.39 -51.48,-91.98 -20.51,-35.13 -20.93,-51.23 -72.05,-47.81 -7.85,42.9 -12.37,224.33 4.46,253.56 26.33,-6.91 20.69,16.69 26.74,-37.95l-0.97 -167.55c32.82,38.82 59.9,105.94 95.8,140.87 29.97,-17.64 70.24,-87.84 90.04,-124.04z"/>
   <path class="fil10" d="M14771.25 3595.56l-49.77 -4.78 2.1 251.95 32.37 -13.54 0.79 -187.54c86.41,69.25 107.73,201.77 195.71,203.04 8.85,-48.9 16.62,-223.35 -6.94,-255.7 -26.31,7.74 -20.1,-13.15 -25.65,37.96l1.01 167.87 -149.62 -199.26z"/>
   <path class="fil11" d="M14326.44 2945.72l1.22 13.22c20.09,35.3 9.25,233.27 8.5,305.75 -0.62,60.98 -13.47,69.46 36.15,83.42 13.52,-34.13 9.66,-40.82 9.33,-83.56l-0.82 -286.62c7.92,-53.57 1.95,-15.79 15.86,-29.54l1.82 -0.9c57.68,-37.34 97.02,2.31 154.88,-24.67 -32.78,-17.5 -300.79,-15.82 -346.8,-11.67 -53.6,4.82 -8.83,-4.31 -33.58,11.67 25.88,16.87 34.35,11.01 78.13,9.52 31.21,-1.07 59.71,-8.06 75.31,13.38z"/>
   <path class="fil10" d="M12486.15 3625.46c139.66,-75.99 201.34,144.2 96.07,185.91 -140.69,55.74 -208.91,-124.51 -96.07,-185.91zm179.41 135.12c60.4,-193.69 -216.92,-231.78 -263.66,-95.46 -33.2,96.79 15.65,163.59 89.45,179.24 92.61,19.64 153.39,-17 174.21,-83.78z"/>
   <path class="fil10" d="M11389.3 3840.83l45.89 0.59c-1.96,-46.03 -2.59,-89.9 -2.34,-135.95 0.52,-97.47 11.39,-80.61 -14.79,-111.76 -18.93,33.25 -6.72,141.42 -11.64,209.94 -39.2,-10.51 -10.43,0.4 -22.59,-20.35 -13.69,-31.26 -53.35,-78.27 -76.35,-110.34 -52.14,-72.76 -42.58,-81.17 -98.85,-82.86 -1.32,2.87 -2.93,6.46 -3.57,8.76l-6.81 62.2c-0.01,22.09 0.57,44.32 0.53,66.45 -0.27,149.43 -8.16,98.12 20.86,117.61 28.9,-45.04 9.95,-125.64 16.98,-211.03 10.09,23.36 54.08,74.18 74.22,101.26 23.91,32.16 57.52,71.57 78.46,105.48z"/>
   <path class="fil10" d="M13804.09 3809.42c-97.91,31.76 -180.48,-12.38 -161.03,-114.67 14.23,-74.91 87.05,-84.25 145.15,-77.13l48.43 -0.35c-8.35,-17.07 15.24,-30.96 -70.68,-32.22 -241.1,-3.57 -221.55,344.94 76.81,243.92l1.89 -117.79c-141.09,-3.45 -80.89,-3.03 -101.27,16.33 23.28,15.51 22.67,11.37 63.19,13.48l-2.49 68.43z"/>
   <path class="fil12" d="M2217.86 2610.36c25.49,-190.75 7.59,-192.78 65.93,-214.95 52.45,-19.95 287.87,-55.17 354.05,-91.04l-384.34 29.68 4.22 -148.7c-44.06,28.39 -29.29,142.77 -32.52,197.47 -4.34,73.71 -15.44,154.53 -7.34,227.54z"/>
   <path class="fil10" d="M10677.66 3617.25c90.17,0.19 165.17,2.64 163.42,99.14 -1.61,88.89 -74.72,100.34 -163.71,100.38l0.29 -199.52zm81.46 221.2c150.82,-10.58 169.7,-231.36 8.08,-242.96l-121.69 -3.07 0.86 250.43 112.75 -4.4z"/>
   <path class="fil10" d="M9724.28 3635.33l42.21 111.15 -94.79 -0.79 52.58 -110.36zm-124.46 191.65c-0.37,25.96 2.68,16.04 36.14,13.12l22.34 -65.99 124.12 1.5 26.74 58.52c52.01,14.55 24.22,6.89 33.41,-8.72 -15.6,-43.3 -75.32,-215.49 -122.09,-236.42 -42.86,19.7 -107.04,196.09 -120.66,237.99z"/>
   <path class="fil10" d="M14543.68 3629.67l50.57 115.79 -96.58 0.43 46.01 -116.22zm-118.71 192.7c10.68,18.54 -20,11.75 28.77,16.17l28.57 -64.48 125 -0.63c20.06,45.62 8.96,66.27 61.69,72.1 -2.03,-41.56 -59.82,-155.36 -83.59,-209.08 -18.23,-41.19 -3.59,-32.01 -36.74,-47.99 -35.87,-3.33 -111.62,198.88 -123.7,233.91z"/>
   <path class="fil10" d="M15390.23 3630.7l44.82 115.81 -96.23 -1.15 51.41 -114.66zm91.11 208.19c52.99,-2.16 18.99,3.84 30.24,-17.85 -16.44,-40.68 -35.78,-80.25 -53.52,-120.68 -15.7,-35.76 -30.87,-86.73 -60.6,-111 -45.92,11.17 -29.96,6.69 -51.03,55.06 -24.16,55.51 -77.03,158.04 -80.08,201 54.32,-5.69 38.89,-26.16 61.65,-71.57l123.67 0.18 29.67 64.86z"/>
   <path class="fil10" d="M11026.38 3630.07l46.43 115.81 -96.73 -1.12 50.3 -114.69zm-124.86 215.62c49.94,-6.46 44.02,-26.44 61.5,-72.16l124.69 -0.14c17.16,46.48 15.12,67.93 62.91,71.67 -1.13,-19.41 -79.71,-241.55 -129.4,-256.22 -33.51,21.78 -116.11,224.08 -119.7,256.85z"/>
   <path class="fil10" d="M11873.42 3636.5l42.17 109.98 -95.72 -0.85 53.55 -109.13zm-124.21 189.96c1.1,23.97 5.5,14.96 32.72,9.02l24.84 -61.33 120.96 -0.89 30.46 62.69c52.08,8.82 19.7,4.78 32.12,-9.03l-77.79 -185.29c-19.62,-48.04 -17.98,-41.46 -42.5,-53.2 -39.94,21.03 -41.96,55.99 -69.08,114.99 -20.27,44.08 -40.22,80.97 -51.73,123.04z"/>
   <path class="fil13" d="M15231.31 3806.55c-249.97,72.72 -237.77,-246.07 -0.29,-180.42 0.49,-40.1 5.39,-40.34 -53.83,-41.65 -73.82,-1.64 -143.55,28.57 -159.93,103.52 -28.23,129.16 68.68,125.21 144.86,204.86l-39.69 22.04c29.49,12.32 42.71,4.99 68.91,-4.62 -9.38,-65.62 5.81,-19.5 -36.7,-59.98 12.38,-1.06 49.16,-3.03 59.46,-8.66 31.41,-17.17 15.29,12.81 17.21,-35.09z"/>
   <path class="fil10" d="M14233.5 3620.65c59.01,-8.09 68.68,-6.12 105.21,20.42l-10.24 53.84c-27.13,10.3 -58.12,15.7 -95.18,9.5l0.21 -83.76zm-1.45 215.26l1.54 -95.5c74.89,-9.53 93.71,47.49 127.83,94.45 54.5,15.43 28.55,-1.54 34.28,-12.66l-66.16 -87.63c-0.85,-4.03 -3.58,-4.65 -5.26,-7.06 37.45,-31.04 55.98,-35.44 47.73,-102.05 -31.15,-24.14 -22.55,-30.61 -65.28,-29.16l-103.39 3.49 -1.55 231.53 30.26 4.59z"/>
   <path class="fil10" d="M11712.42 3807.67c-243.47,70.89 -248.49,-244.74 -0.23,-182.75 -0.64,-38.72 -1.68,-38.24 -51.7,-40.16 -72.73,-2.8 -144.72,23.54 -162.76,101.78 -13.24,57.39 8.89,106.91 38.77,132.34 51.75,44.03 8.96,-18.07 106.02,73.98 -44.97,22.54 -25.38,-4.58 -35.15,33.25l64.13 -19.94c-6.83,-40.26 -8.24,-31.15 -38.23,-53.03 51.81,-10.57 75.88,0.1 79.15,-45.47z"/>
   <path class="fil10" d="M10370.85 3588.88c-25.54,15.15 -17.6,3.27 -22.5,38.12l3.32 143.1c17.71,112.37 201.28,109.54 216.27,-9.77 5.67,-45.12 14.1,-139.06 -9.7,-171.27 -48.56,14.23 -17.62,54.6 -24.88,160.36 -5.17,75.32 -44.07,78.5 -118.48,63.66 -40.11,-23.14 -27.66,-123.33 -28.7,-163.23l-15.33 -60.97z"/>
   <path class="fil10" d="M9377.94 3599.07l-33.82 -9.2 0.47 183.98c8.08,44.46 25.85,63.53 70.28,71.92 126.57,23.86 145.28,-50.47 145.88,-140.25 0.96,-142.33 2.69,-108.83 -27.67,-115.72 -35.1,62.87 40.93,226.37 -77.14,230.74 -106.33,3.93 -82.35,-134.65 -78,-221.47z"/>
   <path class="fil10" d="M14119.26 3772.99l0.5 -155.14c-5.79,-25.72 -1.53,-8.75 -12.01,-23.87 -11.89,16.48 -15.09,-23.82 -12.48,89.47 0.88,38.11 7.02,64.44 -11.92,86.92 -14.68,58.15 -45.36,54.14 -112.11,44.02 -64.43,-93.48 -3.95,-152.25 -39.87,-224.93 -33.03,14.64 -26.07,-16.64 -27.29,59.96 -1.07,66.7 -5.66,148.42 36.38,179.85 28.18,21.07 158.36,52.95 178.8,-56.28z"/>
   <path class="fil10" d="M9252.87 3619.03c20.47,-9.79 16.22,19.54 15.77,-26.74 -83.9,-22.11 -168.75,-7.79 -155.46,94.65 25.69,20.16 43.12,27.17 83.11,47.07 41.44,20.62 51.55,16.47 49.34,71.49 -53.22,23.49 -88.61,3.29 -138.64,1.68 11.37,68.48 177.53,57.04 179.44,-24.88 2.26,-97.01 -131.81,-49.48 -137.31,-142.97 36.87,-32.21 44.64,-29.74 103.75,-20.3z"/>
   <path class="fil10" d="M13172.14 3804.24c5.35,39.69 4.39,39.67 54.24,43.65 23.89,1.91 58.71,0.4 78.85,-6.97 52.86,-19.33 65.1,-76.85 17.78,-111.98 -31.1,-23.09 -101.03,-35.27 -108.2,-69.86 -12.85,-62.03 87.14,-44.78 121.26,-33.66 1.21,-40.12 22.37,-32.66 -32.91,-40.55 -49.21,-7.03 -138.7,13.71 -129.21,76.5 35.72,79.29 177.13,76.82 126.66,139.99 -14.34,14.15 21.94,6.82 -30.81,18.03 -33.59,7.13 -70.24,-9.74 -97.66,-15.15z"/>
   <path class="fil10" d="M12354.82 3807.31c-243.82,78.51 -236.9,-254.15 -0.17,-181.64 0.41,-37.39 4.89,-39.37 -54.48,-41.09 -83.12,-2.41 -158.22,41.66 -161.11,131.75 -3.58,111.44 85.51,140.91 171.31,131.16 59.83,-6.81 43.87,-2.59 44.45,-40.18z"/>
   <path class="fil14" d="M15004.81 3306.52l-244.9 -0.1c13.78,23.3 136.14,11.3 175.33,11.66 53.06,0.51 41.36,3.14 54.46,12.59 -15.5,13.03 5.52,14.79 -54.54,15.72l-230.15 -3.83 -5.65 -428.76c63.31,-0.15 233.12,-12.83 277.98,9.02 -48.33,26.99 -178.97,-14.82 -216.55,24.24l214.81 -4.33 14.43 -30.94c-21.66,-15.82 21.51,-6.17 -32.96,-13.15l-264.83 -0.21 -0.58 453.84 310.83 0.94 2.32 -46.69z"/>
   <path class="fil15" d="M9202.35 3306.99c8.15,4.96 4.83,6.31 22.78,10.05l185.6 5.35c2.39,0.52 6.89,6.49 8.54,3.82 1.64,-2.63 5.42,2.95 8.12,4.46 -22.8,17.44 14.68,8.54 -37.2,17.41l-243.53 1.22 -4.61 -445.24c107.03,20.5 226.49,-9.6 273.27,18.76 -30.6,17.12 -70.15,11.3 -113.74,11.03 -43.31,-0.28 -68.46,-6.93 -99.92,11.26l227.83 -3.79 0.42 -40.83 -298.93 -1.7 -0.44 453.4 311.28 -2 1.32 -44.65 -240.79 1.45z"/>
   <path class="fil9" d="M13567.24 3824.51c-29,-13.58 -79.38,-8.01 -120.83,-9.04l0.26 -86.33c46.04,0.68 68.83,7.91 105.76,-12.66 -17.56,-12.35 -8.28,-14.03 -50.55,-17.38 -11.04,-0.87 -39.03,1.23 -54.19,1.23l-1.31 -82.09 94.65 -0.78c-10.18,-21.45 -91.15,-15.26 -122.27,-16.8l4.35 231.97 144.13 -8.12z"/>
   <path class="fil14" d="M7041.67 3259.3c20.57,-26.24 11.79,-209.41 10.88,-270.48 -0.19,-12.48 -1.59,-33.13 -0.34,-44.53 4.38,-40.26 7.22,-25.83 11.67,-33.15l22.04 -0.65c21.33,30.74 12.4,53.76 11.98,100.5l-1.76 334.06c-50.28,1.04 -47.14,3.42 -85.28,-15.05l9.44 22.14 87.74 0.81 0.67 -454.06 -68.23 -0.47 1.19 360.88z"/>
   <path class="fil14" d="M14327.66 2958.94l0.8 393.14 67.72 1.32 0.5 -405.01c-13.91,13.75 -7.94,-24.03 -15.86,29.54l0.82 286.62c0.33,42.74 4.19,49.43 -9.33,83.56 -49.62,-13.96 -36.77,-22.44 -36.15,-83.42 0.75,-72.48 11.59,-270.45 -8.5,-305.75z"/>
   <path class="fil14" d="M9925.1 2947.27c-11.26,-21.48 -45.89,-14.2 -72.1,-13.67 -43.37,0.88 -50.31,5.99 -80.91,-10.78 39.66,-19.27 124.6,-10.01 190.9,-9.45 33.01,0.27 66.28,0.69 99.28,0.26 85.89,-1.11 62.13,-7.36 87.63,9.19 -19.3,13.14 4.89,11.98 -76.69,10.25 -38.11,-0.8 -52.98,-6.4 -76.48,12.74 32.98,0.35 65.88,0.34 98.86,0.8 82.44,1.12 60.13,-2.93 69.34,-23.79 -12.55,-28.12 0.93,-19.49 -35.12,-24.69l-372.62 4.99 -0.55 41.83 168.46 2.32z"/>
   <path class="fil14" d="M14326.44 2945.72c-15.6,-21.44 -44.1,-14.45 -75.31,-13.38 -43.78,1.49 -52.25,7.35 -78.13,-9.52 24.75,-15.98 -20.02,-6.85 33.58,-11.67 46.01,-4.15 314.02,-5.83 346.8,11.67 -57.86,26.98 -97.2,-12.67 -154.88,24.67l169.39 -4.27 0 -40.36c-73.15,-9.31 -235.83,-1.97 -327.96,-3.53 -95.47,-1.61 -70.94,1.6 -80.81,23.49 12.36,27.67 -4.03,24.93 80.84,23.51 28.81,-0.48 57.63,-0.21 86.48,-0.61z"/>
   <path class="fil16" d="M14233.29 3704.41c37.06,6.2 68.05,0.8 95.18,-9.5l10.24 -53.84c-36.53,-26.54 -46.2,-28.51 -105.21,-20.42l-0.21 83.76z"/>
   <path class="fil17" d="M4836.99 3200.41c25.7,-48.22 9.63,-222.65 10.32,-285.58l33.96 -0.41c22.05,32.98 11.63,202.35 11.13,251.71 -0.26,25.94 -12.2,81.16 8.16,50.09l4.86 -317.5 -68.55 -0.27 0.12 301.96z"/>
   <path class="fil18" d="M14760.81 3142.73l-0.9 163.69 244.9 0.1c-39.56,-23.04 -198.95,-12.82 -240.61,-8.54l-1.5 -150.1c62.4,5.61 179.41,23.58 226.85,-15.63 0,-84.98 3.34,-16.48 -16.38,-39.03l-0.78 49.55 -211.58 -0.04z"/>
   <path class="fil14" d="M14760.81 3142.73l211.58 0.04 0.78 -49.55 -211.06 5.23c37.49,33.43 143.1,-10.41 193.12,22.79l-41.84 10.01c-49.11,2.34 -118.45,-8.46 -152.58,11.48z"/>
   <path class="fil19" d="M10229.72 3655.38c25.41,82.23 -29.55,162.86 30.9,195.97 37.92,-26.14 27.44,-214 16.75,-262.26 -47.39,-9.77 -25.13,-9.64 -48.44,10.71l44.86 -8.15c-2.73,66.73 7.19,213.69 -13.17,250.42 -19.21,-25.19 -11.49,29.37 -16.77,-47.73 -0.8,-11.57 1.4,-42.07 1.66,-55.8 0.67,-36.73 1.34,-73.5 1.43,-110.12 -27.74,18.47 -9.03,2.69 -17.22,26.96z"/>
   <path class="fil20" d="M11383.83 3783.3c12.16,20.75 -16.61,9.84 22.59,20.35 4.92,-68.52 -7.29,-176.69 11.64,-209.94 26.18,31.15 15.31,14.29 14.79,111.76 -0.25,46.05 0.38,89.92 2.34,135.95l-45.89 -0.59c19.44,8.43 9.7,12.12 48.69,5.73 11.1,-45.14 6.28,-93.4 6.38,-141.09 0.13,-53.85 16.34,-100.24 -26.31,-122.39 -33.45,23.39 -20.9,54.13 -20.25,100.32 0.86,59.88 8.64,81.93 -13.98,99.9z"/>
   <polygon class="fil21" points="14497.67,3745.89 14594.25,3745.46 14543.68,3629.67 "/>
   <polygon class="fil21" points="10976.08,3744.76 11072.81,3745.88 11026.38,3630.07 "/>
   <polygon class="fil21" points="15338.82,3745.36 15435.05,3746.51 15390.23,3630.7 "/>
   <path class="fil14" d="M9201.68 3144.19c37.15,0.99 73.82,0.78 110.96,1.02 78.08,0.51 70.26,9.23 98.78,-12.96l0.61 -22.04c-33.95,-22.15 -169.39,-11.33 -210.74,-10.78 54.76,30.94 143.45,-4.5 202.11,21.81 -6.62,3.67 10.97,3.27 -24.67,10.21 -50.18,9.76 -129.82,-13.22 -177.05,12.74z"/>
   <path class="fil22" d="M13570.15 3839.97l-155.44 0.92 1.32 -247.43 145.74 -0.87 -82.57 -11.56c-37.56,0.52 -37.02,-3.56 -73.85,9.5l2.63 252.35c35.17,16.52 127.89,21.86 162.17,-2.91z"/>
   <polygon class="fil21" points="9671.7,3745.69 9766.49,3746.48 9724.28,3635.33 "/>
   <polygon class="fil21" points="11819.87,3745.63 11915.59,3746.48 11873.42,3636.5 "/>
   <path class="fil23" d="M5267.12 3230.56l7.98 -329.25 -57.1 -1.04c9.81,62.6 10.96,257.55 -1.8,314.61 12.56,-72.32 3.11,-267.81 7.09,-280.85 8.13,-26.65 -0.78,-11.76 21.75,-21.5 29.04,39.79 3.86,227.86 9.27,286.31 4.7,50.71 -5.8,12.85 12.81,31.72z"/>
   <path class="fil24" d="M13570.15 3839.97l-2.91 -15.46 -144.13 8.12 -4.35 -231.97c31.12,1.54 112.09,-4.65 122.27,16.8 24.11,-8.9 15.62,17.59 20.74,-24.87l-145.74 0.87 -1.32 247.43 155.44 -0.92z"/>
   <path class="fil20" d="M14083.35 3770.37c18.94,-22.48 12.8,-48.81 11.92,-86.92 -2.61,-113.29 0.59,-72.99 12.48,-89.47 10.48,15.12 6.22,-1.85 12.01,23.87l-0.5 155.14c19.06,-33.33 25.22,-147.94 -0.5,-187.42l-22.04 0.86c-28.07,42.38 -12.07,130.73 -13.37,183.94z"/>
   <path class="fil25" d="M10759.12 3838.45l-112.75 4.4 -0.86 -250.43 121.69 3.07c-30.65,-18.16 -87.04,-17.64 -131.46,-6.34l4.66 254.78c41.86,14.53 85.99,13.78 118.72,-5.48z"/>
   <path class="fil26" d="M7558.16 3447.59c-42.53,20.02 -31.97,8.33 -71.99,18.59 -1.99,0.51 -6.42,6.03 -7.81,3.58 -1.37,-2.38 -4.9,2.7 -7.24,4.22 32.33,28.07 93.29,13.37 113.35,2.36 15.58,-8.57 26.35,-17.76 27.33,-37.58 2.19,-43.95 -15.12,-30.11 -21.94,-35.4l0.47 59.54c-18.26,2.49 -24.23,-9.6 -32.17,-15.31z"/>
   <path class="fil27" d="M14232.05 3835.91l-30.26 -4.59 1.55 -231.53 103.39 -3.49c-28.86,-15 -65.32,-11.32 -106.69,-8.09 -13.6,51.64 -12.25,203.81 -1.16,257.53 57.65,5.17 14.77,2.41 33.17,-9.83z"/>
   <path class="fil25" d="M14755.95 3829.19l-32.37 13.54 -2.1 -251.95 49.77 4.78c-28.95,-17.88 -9.94,-16.76 -52.86,-7.23 -12.14,53.21 -18.32,218.59 6.66,260.91 55.24,-0.1 17.77,2.54 30.9,-20.05z"/>
   <path class="fil15" d="M2320.87 1816.15c18.39,-24.12 12.57,-37.93 12.07,-76.33l101.13 4.84c31.07,12.26 14.96,-21.27 26.32,40.32l2.96 -19.1 4.54 -36.67 -144.87 -1.38 -2.15 88.32z"/>
   <path class="fil25" d="M13045.97 1785.03c13.57,-18.95 12.08,4.16 9,-35.45 -42.14,-2.54 -84.5,-3.4 -126.72,-4.79l-99.12 -3.55c-28.92,-8.57 -8.24,0.87 -25.44,-15.82 -8.5,15.56 -20.73,-22.46 -3.08,24.24l248.19 10.53 -2.83 24.84z"/>
   <path class="fil28" d="M9344.59 3773.85l-0.47 -183.98 33.82 9.2c-15.89,-16.73 27.51,-19.05 -32.25,-14.67 -19.45,33.03 -12.93,58.2 -13.01,99.03l11.91 90.42z"/>
   <path class="fil15" d="M2541.65 1875.66l3.4 -55.76 -61.09 -2.94c45.77,45.78 39.53,-26.93 52.59,47.62 -9.72,5.45 9.21,3.39 -25.41,10.6l30.51 0.48z"/>
   <path class="fil29" d="M12640.64 2190.49l0.39 -27.34c-4.12,-21.77 2.26,-15.55 -21.37,-15.99l-27.27 4.44 48.25 38.89z"/>
   <path class="fil30" d="M14361.42 3834.86c26.6,21.27 0.59,12.82 48.16,17.12 -0.23,-54.85 3.13,-13.79 -13.88,-29.78 -5.73,11.12 20.22,28.09 -34.28,12.66z"/>
   <path class="fil25" d="M15363.75 2183.15l18.37 -46.78c-43.26,4.11 -18.4,-10.76 -47.04,17.34l32.75 -10.25 -4.08 39.69z"/>
   <path class="fil31" d="M14453.74 3838.54c-48.77,-4.42 -18.09,2.37 -28.77,-16.17 -11.31,20.99 -13.93,-26.68 -8.71,25.42 49.98,2.34 28.15,-4.09 37.48,-9.25z"/>
   <path class="fil30" d="M9252.87 3619.03c21.07,11.03 -26.74,16.46 25.48,7.98 4.28,-56.32 1.48,-17.56 -9.71,-34.72 0.45,46.28 4.7,16.95 -15.77,26.74z"/>
   <path class="fil32" d="M9635.96 3840.1c-33.46,2.92 -36.51,12.84 -36.14,-13.12l-6.5 11.63c-8.36,35.37 -7.3,-10.44 5.9,14.06 58.7,2.26 24.01,-1.84 36.74,-12.57z"/>
   <path class="fil30" d="M9809.16 3834.13c21.64,18.84 -7.71,15.39 45.05,14.49l-11.64 -23.21c-9.19,15.61 18.6,23.27 -33.41,8.72z"/>
   <path class="fil30" d="M11958.19 3835.95c22.97,17.81 -6.75,16.13 44.07,10.76l-11.95 -19.79c-12.42,13.81 19.96,17.85 -32.12,9.03z"/>
   <path class="fil31" d="M15481.34 3838.89c9.29,4.64 -14.53,11.36 38.06,9.36l-7.82 -27.21c-11.25,21.69 22.75,15.69 -30.24,17.85z"/>
   <path class="fil30" d="M11781.93 3835.48c-27.22,5.94 -31.62,14.95 -32.72,-9.02l-11.28 22.29c49.87,2.26 21.18,6.12 44,-13.27z"/>
   <path class="fil33" d="M3968.54 1717.75l25.65 -4.26c-0.34,-0.19 6.22,-7.09 -19.09,-8.8 -40.7,-2.76 21.47,-4.51 -16.91,0.55l10.35 12.51z"/>
   <path class="fil30" d="M12641.03 2163.15l10.12 -19.82c-63,-15.33 -6.93,-3.33 -31.49,3.83 23.63,0.44 17.25,-5.78 21.37,15.99z"/>
  </g>
 </g>
</svg>
